<svg width="28" height="28" viewBox="0 0 28 28" fill="none" xmlns="http://www.w3.org/2000/svg">
<g clip-path="url(#clip0_213_121)">
<path d="M11.55 16.45C10.9278 15.8278 10.359 15.1764 9.84375 14.4958C9.32847 13.8153 8.85694 13.0958 8.42917 12.3375C8.33194 12.6097 8.26875 12.8868 8.23958 13.1687C8.21042 13.4507 8.19583 13.7278 8.19583 14C8.19583 15.6139 8.75972 16.9847 9.8875 18.1125C11.0153 19.2403 12.3861 19.8042 14 19.8042C14.2722 19.8042 14.5493 19.7847 14.8313 19.7458C15.1132 19.7069 15.3903 19.6486 15.6625 19.5708C14.9042 19.1431 14.1847 18.6715 13.5042 18.1562C12.8236 17.641 12.1722 17.0722 11.55 16.45ZM13.2125 14.8167C14.2042 15.8083 15.3125 16.659 16.5375 17.3687C17.7625 18.0785 19.075 18.6278 20.475 19.0167C19.6972 20.0083 18.7444 20.7812 17.6167 21.3354C16.4889 21.8896 15.2931 22.1667 14.0292 22.1667C11.7542 22.1667 9.82431 21.3743 8.23958 19.7896C6.65486 18.2049 5.8625 16.275 5.8625 14C5.8625 12.7361 6.13958 11.5403 6.69375 10.4125C7.24792 9.28472 8.02083 8.33194 9.0125 7.55417C9.40139 8.95417 9.95069 10.2667 10.6604 11.4917C11.3701 12.7167 12.2208 13.825 13.2125 14.8167ZM21.6708 16.9167C21.2819 16.8194 20.8979 16.7125 20.5187 16.5958C20.1396 16.4792 19.7653 16.3431 19.3958 16.1875C19.5514 15.8375 19.6632 15.4826 19.7313 15.1229C19.7993 14.7632 19.8333 14.3889 19.8333 14C19.8333 12.3861 19.2646 11.0104 18.1271 9.87292C16.9896 8.73542 15.6139 8.16667 14 8.16667C13.6111 8.16667 13.2368 8.20069 12.8771 8.26875C12.5174 8.33681 12.1625 8.44861 11.8125 8.60417C11.6569 8.23472 11.5257 7.86528 11.4187 7.49583C11.3118 7.12639 11.2097 6.74722 11.1125 6.35833C11.5792 6.18333 12.0556 6.05208 12.5417 5.96458C13.0278 5.87708 13.5236 5.83333 14.0292 5.83333C16.3042 5.83333 18.234 6.62569 19.8188 8.21042C21.4035 9.79514 22.1958 11.725 22.1958 14C22.1958 14.5056 22.1521 15.0014 22.0646 15.4875C21.9771 15.9736 21.8458 16.45 21.6708 16.9167ZM12.8333 3.5V0H15.1667V3.5H12.8333ZM12.8333 28V24.5H15.1667V28H12.8333ZM22.2542 7.40833L20.5917 5.74583L23.0708 3.29583L24.7333 4.92917L22.2542 7.40833ZM4.92917 24.7042L3.26667 23.0708L5.74583 20.5917L7.40833 22.2542L4.92917 24.7042ZM24.5 15.1667V12.8333H28V15.1667H24.5ZM0 15.1667V12.8333H3.5V15.1667H0ZM23.0708 24.7333L20.5917 22.2542L22.2542 20.5917L24.7042 23.0708L23.0708 24.7333ZM5.74583 7.40833L3.29583 4.92917L4.92917 3.26667L7.40833 5.74583L5.74583 7.40833Z" fill="#203246"/>
</g>
<defs>
<clipPath id="clip0_213_121">
<rect width="28" height="28" fill="white"/>
</clipPath>
</defs>
</svg>
